<?xml version="1.0" encoding="utf-8"?>
<!-- Generator: Adobe Illustrator 15.1.0, SVG Export Plug-In . SVG Version: 6.00 Build 0)  -->
<!DOCTYPE svg PUBLIC "-//W3C//DTD SVG 1.1//EN" "http://www.w3.org/Graphics/SVG/1.1/DTD/svg11.dtd">
<svg version="1.1" id="Layer_1" xmlns="http://www.w3.org/2000/svg" xmlns:xlink="http://www.w3.org/1999/xlink" x="0px" y="0px"
	 width="51.113px" height="52.98px" viewBox="0 0 51.113 52.98" enable-background="new 0 0 51.113 52.98" xml:space="preserve">
<g>
	<path fill="#FFFFFF" stroke="#FFFFFF" stroke-width="2" stroke-miterlimit="10" d="M45.358,10.937
		c-4.176-5.4-11.161-8.353-18.146-8.353c-15.121,0-24.338,12.529-24.554,24.986c-0.144,11.881,6.336,23.042,22.61,23.042
		c1.944,0,4.393-0.36,7.057-1.44l0.504,1.368c-2.88,1.152-5.04,1.44-7.561,1.44c-17.065,0-24.41-11.593-24.266-24.41
		C1.218,14.537,10.939,1,26.997,1c13.321,0,22.97,8.641,23.114,20.521c0.144,9.721-6.409,20.738-15.193,19.73
		c-2.088-0.216-3.816-1.729-3.312-5.401h-0.216c-2.016,3.168-5.977,5.688-9.937,5.473c-4.536-0.216-8.712-4.68-8.712-10.657
		c0-9.865,5.544-18.074,15.265-18.074c2.016,0,7.417,1.008,7.993,6.985l1.656-4.608h1.44l-5.544,18.217
		c-0.36,0.864-0.648,2.088-0.648,3.24c0,1.872,0.864,3.24,3.384,3.24c7.057,0,12.313-9.361,12.313-18.146
		c0-4.176-1.224-7.92-3.6-10.945L45.358,10.937z M21.74,39.595c3.528,0,6.769-1.44,9.649-5.761c1.44-3.528,2.736-7.776,3.601-11.737
		c0-4.896-2.592-7.921-7.273-7.921c-9.217-0.144-13.393,8.569-13.393,16.49C14.323,35.203,17.275,39.595,21.74,39.595z"/>
</g>
</svg>
