<?xml version="1.0" encoding="utf-8"?>
<!-- Generator: Adobe Illustrator 15.1.0, SVG Export Plug-In . SVG Version: 6.00 Build 0)  -->
<!DOCTYPE svg PUBLIC "-//W3C//DTD SVG 1.1//EN" "http://www.w3.org/Graphics/SVG/1.1/DTD/svg11.dtd">
<svg version="1.1" xmlns="http://www.w3.org/2000/svg" xmlns:xlink="http://www.w3.org/1999/xlink" x="0px" y="0px"
	 width="435.403px" height="189.084px" viewBox="0 0 435.403 189.084" enable-background="new 0 0 435.403 189.084"
	 xml:space="preserve">
<g id="Layer_1">
</g>
<g id="Layer_2">
	<g>
		<path fill="#FFFFFF" d="M21.027,98.117c-0.925,0-1.687,0.74-1.811,1.76c0,0.004-4.281,39.1-4.281,39.1l4.281,38.237
			c0.124,1.023,0.886,1.765,1.811,1.765c0.918,0,1.66-0.724,1.807-1.756l4.873-38.246l-4.871-39.102
			C22.688,98.837,21.945,98.117,21.027,98.117z"/>
		<path fill="#FFFFFF" d="M4.93,113.093c-0.908,0-1.626,0.702-1.746,1.703L0,138.977l3.184,23.769c0.12,1,0.838,1.7,1.746,1.7
			c0.883,0,1.598-0.694,1.742-1.691l3.771-23.777l-3.771-24.19C6.529,113.79,5.812,113.093,4.93,113.093z"/>
		<path fill="#FFFFFF" d="M38.133,90.451c-1.15,0-2.068,0.898-2.184,2.137c0,0.003-4.062,46.393-4.062,46.393l4.062,44.698
			c0.115,1.244,1.033,2.14,2.184,2.14c1.129,0,2.045-0.896,2.179-2.131l4.618-44.707l-4.615-46.395
			C40.178,91.347,39.262,90.451,38.133,90.451z"/>
		<path fill="#FFFFFF" d="M55.379,88.811c-1.35,0-2.449,1.08-2.557,2.511l-3.841,47.669l3.841,46.116
			c0.107,1.426,1.207,2.505,2.557,2.505c1.332,0,2.43-1.079,2.551-2.505l4.363-46.116L57.93,91.313
			C57.809,89.888,56.711,88.811,55.379,88.811z"/>
		<polygon fill="#FFFFFF" points="75.688,185.486 75.687,185.489 75.687,185.495 		"/>
		<path fill="#FFFFFF" d="M75.687,94.758c-0.112-1.63-1.37-2.869-2.925-2.869c-1.569,0-2.826,1.241-2.924,2.888l-3.625,44.218
			l3.625,46.496c0.098,1.637,1.354,2.88,2.924,2.88c1.554,0,2.811-1.241,2.925-2.882l4.107-46.494L75.687,94.758z"/>
		<path fill="#FFFFFF" d="M90.289,63.808c-1.759,0-3.208,1.434-3.297,3.263c0,0.002-3.404,71.943-3.404,71.943l3.404,46.491
			c0.089,1.814,1.538,3.25,3.297,3.25c1.744,0,3.191-1.436,3.295-3.26v0.014l3.852-46.495l-3.852-71.946
			C93.48,65.239,92.033,63.808,90.289,63.808z"/>
		<path fill="#FFFFFF" d="M107.684,47.233c-1.975,0-3.586,1.596-3.672,3.635c0,0.005-3.182,88.395-3.182,88.395l3.186,46.204
			c0.082,2.021,1.693,3.617,3.668,3.617c1.961,0,3.572-1.596,3.666-3.635l-0.002,0.026l3.602-46.213l-3.6-88.395
			C111.256,48.829,109.645,47.233,107.684,47.233z"/>
		<path fill="#FFFFFF" d="M125.759,39.247c-2.189,0-3.964,1.764-4.042,4.013c0,0.002-2.963,95.772-2.963,95.772l2.965,45.727
			c0.076,2.228,1.851,3.987,4.04,3.987c2.177,0,3.95-1.755,4.04-4.005l-0.002,0.027l3.346-45.736l-3.344-95.774
			C129.709,41.008,127.936,39.247,125.759,39.247z"/>
		<path fill="#FFFFFF" d="M148.115,40.036c-0.078-2.46-2.014-4.385-4.41-4.385c-2.404,0-4.342,1.927-4.412,4.388l-2.744,98.998
			l2.746,45.443c0.068,2.433,2.006,4.356,4.41,4.356c2.396,0,4.33-1.923,4.41-4.376l3.092-45.42L148.115,40.036z"/>
		<polygon fill="#FFFFFF" points="148.115,184.457 148.115,184.46 148.113,184.483 		"/>
		<path fill="#FFFFFF" d="M161.792,37.814c-2.622,0-4.724,2.09-4.785,4.758l-2.524,96.474l2.527,45.009
			c0.059,2.643,2.16,4.738,4.782,4.738c2.611,0,4.71-2.096,4.781-4.761v0.031l2.838-45.018l-2.838-96.479
			C166.502,39.901,164.403,37.814,161.792,37.814z"/>
		<path fill="#FFFFFF" d="M180.019,40.964c-2.835,0-5.101,2.257-5.155,5.135l-2.304,92.951l2.306,44.726
			c0.053,2.849,2.318,5.099,5.153,5.099c2.827,0,5.091-2.25,5.153-5.131v0.037l2.582-44.727l-2.582-92.964
			C185.109,43.219,182.846,40.964,180.019,40.964z"/>
		<path fill="#FFFFFF" d="M201.438,23.883c-0.878-0.595-1.929-0.942-3.053-0.942c-1.093,0-2.114,0.332-2.977,0.896
			c-1.504,0.984-2.519,2.683-2.549,4.612l-0.02,1.043l-2.066,109.536c0,0.066,2.086,44.464,2.086,44.464
			c0.001,0.064,0.009,0.127,0.013,0.189c0.062,1.241,0.533,2.383,1.286,3.285c1.018,1.218,2.54,2,4.227,2
			c1.498,0,2.867-0.617,3.867-1.614c1-0.995,1.631-2.369,1.66-3.885l0.23-4.396l2.097-40.01l-2.327-110.618
			C203.879,26.548,202.899,24.873,201.438,23.883z"/>
		<polygon fill="#FFFFFF" points="203.91,183.496 203.911,183.483 203.91,183.498 203.912,183.475 203.912,183.464 203.912,183.467 
			203.911,183.483 		"/>
		<path fill="#FFFFFF" d="M219.673,13.395c-0.882-0.534-1.907-0.847-3-0.847c-1.406,0-2.703,0.505-3.721,1.346
			c-1.309,1.08-2.156,2.713-2.18,4.536l-0.012,0.607l-2.406,120.036l1.227,22.19l1.192,21.594c0.042,3.196,2.687,5.835,5.9,5.835
			c3.203,0,5.848-2.639,5.893-5.882v0.051v0.001l2.625-43.789v-0.001l-2.625-120.651C222.536,16.29,221.375,14.424,219.673,13.395z"
			/>
		<path fill="#FFFFFF" d="M381.853,81.966c-7.338,0-14.34,1.488-20.715,4.158C356.876,37.862,316.403,0,267.032,0
			c-12.082,0-23.857,2.375-34.26,6.399c-4.043,1.566-5.115,3.171-5.154,6.297c0,0.002,0,169.973,0,169.973
			c0.043,3.277,2.586,5.825,5.785,6.145c0.137,0.015,148.449,0,148.449,0c29.576,0,53.551-23.709,53.551-53.29
			C435.403,105.943,411.429,81.966,381.853,81.966z"/>
	</g>
</g>
</svg>
