<?xml version="1.0" encoding="utf-8"?>
<!-- Generator: Adobe Illustrator 15.1.0, SVG Export Plug-In . SVG Version: 6.00 Build 0)  -->
<!DOCTYPE svg PUBLIC "-//W3C//DTD SVG 1.1//EN" "http://www.w3.org/Graphics/SVG/1.1/DTD/svg11.dtd">
<svg version="1.1" id="Layer_1" xmlns="http://www.w3.org/2000/svg" xmlns:xlink="http://www.w3.org/1999/xlink" x="0px" y="0px"
	 width="413.395px" height="108.896px" viewBox="0 0 413.395 108.896" enable-background="new 0 0 413.395 108.896"
	 xml:space="preserve">
<path fill="#FFFFFF" d="M138.899,106.946H123.75V1.95h12.299l34.649,50.998L205.346,1.95h12v104.996h-15V32.999l-27.449,40.798
	h-8.55l-27.449-40.798L138.899,106.946L138.899,106.946z"/>
<path fill="#FFFFFF" d="M297.895,80.397h-42.598l-10.199,26.549h-16.35L270.896,0.6h11.1l42.147,106.346h-16.198L297.895,80.397z
	 M260.848,66.147h31.498l-15.75-41.398L260.848,66.147z"/>
<path fill="#FFFFFF" d="M355.496,53.698h17.699c12.75,0,19.051-9.149,19.051-18.299c0-9-6.301-18.149-19.051-18.149h-23.248v89.696
	h-15V1.95h38.248c22.799,0,34.198,16.799,34.198,33.449c0,14.849-9.149,28.949-27.147,32.099l33.147,39.448h-19.649l-38.248-46.048
	V53.698L355.496,53.698z"/>
<path fill="#FFFFFF" d="M94.961,17.289C85.402,7.732,72.367,1.793,57.883,1.793c-14.34,0-27.52,5.939-36.934,15.497
	c-9.27,9.561-15.208,22.597-15.208,37.08c0,14.484,5.938,27.52,15.208,37.078c9.416,9.705,22.595,15.499,36.935,15.499
	c14.483,0,27.52-5.794,37.079-15.499c9.27-9.559,15.207-22.595,15.207-37.078C110.17,39.886,104.232,26.85,94.961,17.289z
	 M31.667,27.864c6.807-6.953,16.078-11.153,26.217-11.153c10.14,0,19.697,4.202,26.506,11.153
	c6.662,6.663,10.863,15.934,10.863,26.505c0,0.163-0.009,0.321-0.011,0.481H20.672c-0.001-0.162-0.013-0.319-0.013-0.481
	C20.659,43.942,24.86,34.527,31.667,27.864z"/>
</svg>
